<mxfile host="65bd71144e" scale="1" border="0" disableSvgWarning="true">
    <diagram id="sN5C_xczEBkzS8yZAXxO" name="Страница — 1">
        <mxGraphModel dx="1212" dy="921" grid="1" gridSize="3.937" guides="1" tooltips="1" connect="1" arrows="1" fold="1" page="1" pageScale="1" pageWidth="3300" pageHeight="4681" background="none" math="0" shadow="0" adaptiveColors="auto">
            <root>
                <mxCell id="0"/>
                <mxCell id="1" parent="0"/>
                <mxCell id="228" style="edgeStyle=none;html=1;entryX=0.5;entryY=0;entryDx=0;entryDy=0;dashed=1;endArrow=open;endFill=0;" edge="1" parent="1" source="57" target="59">
                    <mxGeometry relative="1" as="geometry"/>
                </mxCell>
                <mxCell id="57" value="&lt;i&gt;main.c&lt;/i&gt;&lt;div&gt;(Главный файл)&lt;/div&gt;" style="rounded=0;whiteSpace=wrap;html=1;fontSize=14;fillColor=none;" parent="1" vertex="1">
                    <mxGeometry x="1606.2999999999997" y="1716.53" width="110.23" height="47.24" as="geometry"/>
                </mxCell>
                <mxCell id="226" value="" style="edgeStyle=none;html=1;dashed=1;endArrow=open;endFill=0;" edge="1" parent="1" source="59" target="80">
                    <mxGeometry relative="1" as="geometry"/>
                </mxCell>
                <mxCell id="227" style="edgeStyle=none;html=1;entryX=0.5;entryY=0;entryDx=0;entryDy=0;dashed=1;endArrow=open;endFill=0;" edge="1" parent="1" source="59" target="72">
                    <mxGeometry relative="1" as="geometry"/>
                </mxCell>
                <mxCell id="59" value="&lt;i&gt;&quot;main.h&quot;&lt;/i&gt;&lt;div&gt;(Коммутатор)&lt;/div&gt;" style="rounded=0;whiteSpace=wrap;html=1;fontSize=14;fillColor=none;" parent="1" vertex="1">
                    <mxGeometry x="1606.3099999999995" y="1811.02" width="110.23" height="47.24" as="geometry"/>
                </mxCell>
                <mxCell id="126" value="" style="edgeStyle=none;html=1;dashed=1;endArrow=open;endFill=0;" parent="1" source="62" target="89" edge="1">
                    <mxGeometry relative="1" as="geometry"/>
                </mxCell>
                <mxCell id="62" value="&lt;span style=&quot;padding: 0px 0px 0px 2px;&quot;&gt;&lt;span style=&quot;font-family: Consolas; white-space: pre;&quot;&gt;&lt;font style=&quot;color: rgb(0, 0, 0);&quot;&gt;&lt;i&gt;&quot;Stepper_Motor_Driver.h&quot;&lt;/i&gt;&lt;/font&gt;&lt;/span&gt;&lt;/span&gt;&lt;div&gt;&lt;span style=&quot;padding: 0px 0px 0px 2px;&quot;&gt;&lt;span style=&quot;font-family: Consolas; white-space: pre;&quot;&gt;&lt;font style=&quot;color: rgb(0, 0, 0);&quot;&gt;(Контроль вращения)&lt;/font&gt;&lt;/span&gt;&lt;/span&gt;&lt;/div&gt;" style="rounded=0;whiteSpace=wrap;html=1;fontSize=14;fontStyle=0;fillColor=none;" parent="1" vertex="1">
                    <mxGeometry x="1700.79" y="2598.42" width="188.97" height="47.24" as="geometry"/>
                </mxCell>
                <mxCell id="127" value="" style="edgeStyle=none;html=1;dashed=1;endArrow=open;endFill=0;" parent="1" source="64" target="62" edge="1">
                    <mxGeometry relative="1" as="geometry"/>
                </mxCell>
                <mxCell id="128" style="edgeStyle=orthogonalEdgeStyle;html=1;entryX=0.75;entryY=0;entryDx=0;entryDy=0;dashed=1;endArrow=open;endFill=0;exitX=0.25;exitY=1;exitDx=0;exitDy=0;" parent="1" source="64" target="68" edge="1">
                    <mxGeometry relative="1" as="geometry"/>
                </mxCell>
                <mxCell id="64" value="&lt;i&gt;&quot;Encoder.h&quot;&lt;/i&gt;&lt;div&gt;(Чтение действительных углов системы)&lt;/div&gt;" style="rounded=0;whiteSpace=wrap;html=1;fontSize=14;fillColor=none;" parent="1" vertex="1">
                    <mxGeometry x="1700.79" y="2204.7200000000003" width="188.98" height="47.24" as="geometry"/>
                </mxCell>
                <mxCell id="134" style="edgeStyle=orthogonalEdgeStyle;html=1;entryX=1;entryY=0.5;entryDx=0;entryDy=0;dashed=1;endArrow=open;endFill=0;exitX=0.25;exitY=1;exitDx=0;exitDy=0;" parent="1" source="66" target="131" edge="1">
                    <mxGeometry relative="1" as="geometry"/>
                </mxCell>
                <mxCell id="135" style="edgeStyle=orthogonalEdgeStyle;html=1;entryX=1;entryY=0.5;entryDx=0;entryDy=0;dashed=1;endArrow=open;endFill=0;" parent="1" source="66" target="132" edge="1">
                    <mxGeometry relative="1" as="geometry"/>
                </mxCell>
                <mxCell id="136" style="edgeStyle=orthogonalEdgeStyle;html=1;entryX=0;entryY=0.5;entryDx=0;entryDy=0;dashed=1;endArrow=open;endFill=0;exitX=0.75;exitY=1;exitDx=0;exitDy=0;" parent="1" source="66" target="133" edge="1">
                    <mxGeometry relative="1" as="geometry"/>
                </mxCell>
                <mxCell id="66" value="&lt;i&gt;&quot;Macros.h&quot;&lt;/i&gt;&lt;div&gt;(Макросы сравнения)&lt;/div&gt;" style="rounded=0;whiteSpace=wrap;html=1;fontSize=14;fillColor=none;" parent="1" vertex="1">
                    <mxGeometry x="1448.8199999999997" y="2708.6499999999996" width="157.48" height="47.25" as="geometry"/>
                </mxCell>
                <mxCell id="124" value="" style="edgeStyle=none;html=1;dashed=1;endArrow=open;endFill=0;" parent="1" source="68" target="66" edge="1">
                    <mxGeometry relative="1" as="geometry"/>
                </mxCell>
                <mxCell id="125" style="edgeStyle=orthogonalEdgeStyle;html=1;entryX=0.5;entryY=0;entryDx=0;entryDy=0;dashed=1;endArrow=open;endFill=0;exitX=0.5;exitY=1;exitDx=0;exitDy=0;" parent="1" source="68" target="89" edge="1">
                    <mxGeometry relative="1" as="geometry"/>
                </mxCell>
                <mxCell id="68" value="&lt;span style=&quot;padding: 0px 0px 0px 2px;&quot;&gt;&lt;span style=&quot;font-family: Consolas; white-space: pre;&quot;&gt;&lt;font style=&quot;color: rgb(0, 0, 0);&quot;&gt;&lt;i&gt;&quot;System_status.h&quot;&lt;/i&gt;&lt;/font&gt;&lt;/span&gt;&lt;/span&gt;&lt;div&gt;&lt;span style=&quot;padding: 0px 0px 0px 2px;&quot;&gt;&lt;span style=&quot;font-family: Consolas; white-space: pre;&quot;&gt;&lt;font style=&quot;color: rgb(0, 0, 0);&quot;&gt;(Контроль рабочей зоны)&lt;/font&gt;&lt;/span&gt;&lt;/span&gt;&lt;/div&gt;" style="rounded=0;whiteSpace=wrap;html=1;fontSize=14;fontStyle=0;fillColor=none;" parent="1" vertex="1">
                    <mxGeometry x="1433.0699999999997" y="2598.42" width="188.98" height="47.24" as="geometry"/>
                </mxCell>
                <mxCell id="122" value="" style="edgeStyle=none;html=1;dashed=1;endArrow=open;endFill=0;" parent="1" source="70" target="68" edge="1">
                    <mxGeometry relative="1" as="geometry"/>
                </mxCell>
                <mxCell id="70" value="&lt;span style=&quot;padding: 0px 0px 0px 2px;&quot;&gt;&lt;span style=&quot;font-family: Consolas; white-space: pre;&quot;&gt;&lt;font style=&quot;color: rgb(0, 0, 0);&quot;&gt;&lt;i&gt;&quot;Raspberry.h&quot;&lt;/i&gt;&lt;/font&gt;&lt;/span&gt;&lt;/span&gt;&lt;div&gt;&lt;span style=&quot;padding: 0px 0px 0px 2px;&quot;&gt;&lt;span style=&quot;font-family: Consolas; white-space: pre;&quot;&gt;&lt;font style=&quot;color: rgb(0, 0, 0);&quot;&gt;(Парсинг данных и&lt;/font&gt;&lt;/span&gt;&lt;/span&gt;&lt;/div&gt;&lt;div&gt;&lt;span style=&quot;padding: 0px 0px 0px 2px;&quot;&gt;&lt;span style=&quot;font-family: Consolas; white-space: pre;&quot;&gt;&lt;font style=&quot;color: rgb(0, 0, 0);&quot;&gt;формирование сообщений)&lt;/font&gt;&lt;/span&gt;&lt;/span&gt;&lt;/div&gt;" style="rounded=0;whiteSpace=wrap;html=1;fontSize=14;fontStyle=0;fillColor=none;" parent="1" vertex="1">
                    <mxGeometry x="1433.0799999999997" y="2204.7200000000007" width="188.97" height="47.24" as="geometry"/>
                </mxCell>
                <mxCell id="220" style="edgeStyle=orthogonalEdgeStyle;html=1;exitX=0.75;exitY=1;exitDx=0;exitDy=0;entryX=0.5;entryY=0;entryDx=0;entryDy=0;dashed=1;endArrow=open;endFill=0;" edge="1" parent="1" source="72" target="64">
                    <mxGeometry relative="1" as="geometry"/>
                </mxCell>
                <mxCell id="221" style="edgeStyle=orthogonalEdgeStyle;html=1;entryX=0.5;entryY=1;entryDx=0;entryDy=0;dashed=1;endArrow=open;endFill=0;" edge="1" parent="1" source="72" target="75">
                    <mxGeometry relative="1" as="geometry"/>
                </mxCell>
                <mxCell id="222" style="edgeStyle=orthogonalEdgeStyle;html=1;exitX=1;exitY=0.25;exitDx=0;exitDy=0;entryX=0.5;entryY=1;entryDx=0;entryDy=0;dashed=1;endArrow=open;endFill=0;" edge="1" parent="1" source="72" target="74">
                    <mxGeometry relative="1" as="geometry"/>
                </mxCell>
                <mxCell id="223" style="edgeStyle=orthogonalEdgeStyle;html=1;exitX=1;exitY=0.75;exitDx=0;exitDy=0;entryX=0.5;entryY=1;entryDx=0;entryDy=0;dashed=1;" edge="1" parent="1" source="72" target="76">
                    <mxGeometry relative="1" as="geometry"/>
                </mxCell>
                <mxCell id="72" value="&lt;span style=&quot;padding: 0px 0px 0px 2px;&quot;&gt;&lt;span style=&quot;font-family: Consolas; white-space: pre;&quot;&gt;&lt;font style=&quot;color: rgb(0, 0, 0);&quot;&gt;&lt;i&gt;&quot;Operating_mode.h&quot;&lt;/i&gt;&lt;/font&gt;&lt;/span&gt;&lt;/span&gt;&lt;div&gt;&lt;span style=&quot;padding: 0px 0px 0px 2px;&quot;&gt;&lt;span style=&quot;font-family: Consolas; white-space: pre;&quot;&gt;&lt;font style=&quot;color: rgb(0, 0, 0);&quot;&gt;(Режимы работы системы)&lt;/font&gt;&lt;/span&gt;&lt;/span&gt;&lt;/div&gt;" style="rounded=0;whiteSpace=wrap;html=1;fontSize=14;fontStyle=0;fillColor=none;" parent="1" vertex="1">
                    <mxGeometry x="1559.0499999999997" y="2031.4899999999993" width="204.73" height="47.24" as="geometry"/>
                </mxCell>
                <mxCell id="74" value="&lt;i&gt;&amp;lt;stdlib.h&amp;gt;&lt;/i&gt;&lt;div&gt;(Стандартная библиотека)&lt;/div&gt;" style="rounded=0;whiteSpace=wrap;html=1;fontSize=14;fillColor=none;" parent="1" vertex="1">
                    <mxGeometry x="1795.2699999999998" y="1936.9999999999995" width="94.49" height="62.99" as="geometry"/>
                </mxCell>
                <mxCell id="75" value="&lt;i&gt;&amp;lt;stdio.h&amp;gt;&lt;/i&gt;&lt;div&gt;(Библиотека ввода-вывода)&lt;/div&gt;" style="rounded=0;whiteSpace=wrap;html=1;fontSize=14;fillColor=none;" parent="1" vertex="1">
                    <mxGeometry x="1921.2599999999998" y="1936.9999999999995" width="110.24" height="62.99" as="geometry"/>
                </mxCell>
                <mxCell id="76" value="&lt;i&gt;&amp;lt;string.h&amp;gt;&lt;/i&gt;&lt;div&gt;(Библиотека обработки строк)&lt;/div&gt;" style="rounded=0;whiteSpace=wrap;html=1;fontSize=14;fillColor=none;" parent="1" vertex="1">
                    <mxGeometry x="2062.99" y="1936.9999999999995" width="125.98" height="62.99" as="geometry"/>
                </mxCell>
                <mxCell id="80" value="&lt;i&gt;&quot;stm32fxx_hal.h&quot;&lt;/i&gt;&lt;div&gt;(Библиотека &lt;i&gt;HAL&lt;/i&gt;)&lt;/div&gt;" style="rounded=0;whiteSpace=wrap;html=1;fontSize=14;fillColor=none;" parent="1" vertex="1">
                    <mxGeometry x="1448.82" y="1811.02" width="125.98" height="47.24" as="geometry"/>
                </mxCell>
                <mxCell id="89" value="&lt;i&gt;&quot;stm32fxx_hal.h&quot;&lt;/i&gt;&lt;div&gt;(Библиотека &lt;i&gt;HAL&lt;/i&gt;)&lt;/div&gt;" style="rounded=0;whiteSpace=wrap;html=1;fontSize=14;fillColor=none;" parent="1" vertex="1">
                    <mxGeometry x="1732.29" y="2708.66" width="125.98" height="47.24" as="geometry"/>
                </mxCell>
                <mxCell id="103" style="edgeStyle=orthogonalEdgeStyle;html=1;entryX=0;entryY=0.25;entryDx=0;entryDy=0;dashed=1;startArrow=open;startFill=0;endArrow=none;endFill=0;" parent="1" source="102" target="70" edge="1">
                    <mxGeometry relative="1" as="geometry"/>
                </mxCell>
                <mxCell id="102" value="&lt;i&gt;&amp;lt;math.h&amp;gt;&lt;/i&gt;&lt;div&gt;(унарные операции)&lt;/div&gt;" style="rounded=0;whiteSpace=wrap;html=1;fontSize=14;fillColor=none;" parent="1" vertex="1">
                    <mxGeometry x="1275.5899999999997" y="2110.2299999999996" width="94.49" height="62.99" as="geometry"/>
                </mxCell>
                <mxCell id="112" style="edgeStyle=orthogonalEdgeStyle;html=1;entryX=0;entryY=0.75;entryDx=0;entryDy=0;exitX=0.5;exitY=0;exitDx=0;exitDy=0;endArrow=diamond;endFill=1;" parent="1" source="107" target="68" edge="1">
                    <mxGeometry relative="1" as="geometry"/>
                </mxCell>
                <mxCell id="107" value="&lt;i&gt;Systems&lt;/i&gt;" style="swimlane;fontStyle=0;childLayout=stackLayout;horizontal=1;startSize=30;horizontalStack=0;resizeParent=1;resizeParentMax=0;resizeLast=0;collapsible=1;marginBottom=0;whiteSpace=wrap;html=1;fontSize=14;fillColor=none;" parent="1" vertex="1">
                    <mxGeometry x="1196.85" y="2708.66" width="173.23" height="90" as="geometry">
                        <mxRectangle x="1212.6" y="2440.9399999999996" width="94.488" height="31.496" as="alternateBounds"/>
                    </mxGeometry>
                </mxCell>
                <mxCell id="108" value="Angulars Config_angular" style="text;strokeColor=none;fillColor=none;align=left;verticalAlign=middle;spacingLeft=4;spacingRight=4;overflow=hidden;points=[[0,0.5],[1,0.5]];portConstraint=eastwest;rotatable=0;whiteSpace=wrap;html=1;fontSize=14;fontStyle=2" parent="107" vertex="1">
                    <mxGeometry y="30" width="173.23" height="30" as="geometry"/>
                </mxCell>
                <mxCell id="109" value="float Actual_angular" style="text;strokeColor=none;fillColor=none;align=left;verticalAlign=middle;spacingLeft=4;spacingRight=4;overflow=hidden;points=[[0,0.5],[1,0.5]];portConstraint=eastwest;rotatable=0;whiteSpace=wrap;html=1;fontSize=14;fontStyle=2" parent="107" vertex="1">
                    <mxGeometry y="60" width="173.23" height="30" as="geometry"/>
                </mxCell>
                <mxCell id="171" style="edgeStyle=orthogonalEdgeStyle;html=1;entryX=0;entryY=0.5;entryDx=0;entryDy=0;endArrow=diamond;endFill=1;exitX=0.5;exitY=0;exitDx=0;exitDy=0;" edge="1" parent="1" source="113" target="107">
                    <mxGeometry relative="1" as="geometry"/>
                </mxCell>
                <mxCell id="113" value="&lt;i&gt;Angulars&lt;/i&gt;" style="swimlane;fontStyle=0;childLayout=stackLayout;horizontal=1;startSize=30;horizontalStack=0;resizeParent=1;resizeParentMax=0;resizeLast=0;collapsible=1;marginBottom=0;whiteSpace=wrap;html=1;fontSize=14;fillColor=none;" parent="1" vertex="1">
                    <mxGeometry x="1055.11" y="2834.6400000000003" width="110.23" height="90" as="geometry">
                        <mxRectangle x="1070.86" y="2440.94" width="94.488" height="31.496" as="alternateBounds"/>
                    </mxGeometry>
                </mxCell>
                <mxCell id="114" value="float Maximum" style="text;strokeColor=none;fillColor=none;align=left;verticalAlign=middle;spacingLeft=4;spacingRight=4;overflow=hidden;points=[[0,0.5],[1,0.5]];portConstraint=eastwest;rotatable=0;whiteSpace=wrap;html=1;fontSize=14;fontStyle=2" parent="113" vertex="1">
                    <mxGeometry y="30" width="110.23" height="30" as="geometry"/>
                </mxCell>
                <mxCell id="115" value="float Minimum" style="text;strokeColor=none;fillColor=none;align=left;verticalAlign=middle;spacingLeft=4;spacingRight=4;overflow=hidden;points=[[0,0.5],[1,0.5]];portConstraint=eastwest;rotatable=0;whiteSpace=wrap;html=1;fontSize=14;fontStyle=2" parent="113" vertex="1">
                    <mxGeometry y="60" width="110.23" height="30" as="geometry"/>
                </mxCell>
                <mxCell id="121" style="edgeStyle=orthogonalEdgeStyle;html=1;entryX=0;entryY=0.25;entryDx=0;entryDy=0;dashed=1;endArrow=block;endFill=0;" parent="1" source="120" target="68" edge="1">
                    <mxGeometry relative="1" as="geometry">
                        <Array as="points">
                            <mxPoint x="1244" y="2661"/>
                            <mxPoint x="1244" y="2610"/>
                        </Array>
                    </mxGeometry>
                </mxCell>
                <mxCell id="120" value="&lt;span style=&quot;padding: 0px 0px 0px 2px;&quot;&gt;&lt;span style=&quot;font-family: Consolas; white-space: pre;&quot;&gt;&lt;font style=&quot;color: rgb(0, 0, 0);&quot;&gt;&lt;i&gt;&quot;System_status.c&quot;&lt;/i&gt;&lt;/font&gt;&lt;/span&gt;&lt;/span&gt;&lt;div&gt;&lt;span style=&quot;padding: 0px 0px 0px 2px;&quot;&gt;&lt;span style=&quot;font-family: Consolas; white-space: pre;&quot;&gt;&lt;font style=&quot;color: rgb(0, 0, 0);&quot;&gt;(Контроль рабочей зоны)&lt;/font&gt;&lt;/span&gt;&lt;/span&gt;&lt;/div&gt;&lt;div&gt;&lt;span style=&quot;padding: 0px 0px 0px 2px;&quot;&gt;&lt;div style=&quot;font-size: 12px; text-align: justify;&quot;&gt;&lt;span style=&quot;font-family: Consolas; font-size: 10pt; white-space: pre; background-color: transparent; font-weight: bold;&quot;&gt;char&lt;/span&gt;&lt;span style=&quot;font-family: Consolas; font-size: 10pt; white-space: pre; background-color: transparent;&quot;&gt; &lt;/span&gt;&lt;span style=&quot;font-family: Consolas; font-size: 10pt; white-space: pre; background-color: transparent; font-weight: bold;&quot;&gt;System_CheckLimit&lt;/span&gt;&lt;span style=&quot;font-family: Consolas; font-size: 10pt; white-space: pre; background-color: transparent;&quot;&gt;(&lt;/span&gt;&lt;/div&gt;&lt;div style=&quot;font-size: 12px; text-align: justify;&quot;&gt;&lt;span style=&quot;padding: 0px 0px 0px 2px;&quot;&gt;&lt;span style=&quot;font-family: Consolas; font-size: 10pt; white-space: pre;&quot;&gt;&lt;font style=&quot;color: rgb(0, 0, 0);&quot;&gt;&lt;font color=&quot;#000000&quot;&gt;  &lt;/font&gt;&lt;span style=&quot;color: light-dark(rgb(0, 0, 0), rgb(237, 237, 237)); font-weight: bold;&quot;&gt;Systems&lt;/span&gt;&lt;font color=&quot;rgba(0, 0, 0, 0)&quot;&gt; *Systema_xx,&lt;/font&gt;&lt;/font&gt;&lt;/span&gt;&lt;/span&gt;&lt;/div&gt;&lt;div style=&quot;font-size: 12px; text-align: justify;&quot;&gt;&lt;span style=&quot;padding: 0px 0px 0px 2px;&quot;&gt;&lt;span style=&quot;font-family: Consolas; font-size: 10pt; white-space: pre;&quot;&gt;&lt;font style=&quot;color: rgb(0, 0, 0);&quot;&gt;&lt;font color=&quot;#000000&quot;&gt;  &lt;/font&gt;&lt;span style=&quot;color: light-dark(rgb(0, 0, 0), rgb(237, 237, 237)); font-weight: bold;&quot;&gt;float&lt;/span&gt;&lt;font color=&quot;rgba(0, 0, 0, 0)&quot;&gt; Incremtnt_limit&lt;/font&gt;&lt;/font&gt;&lt;/span&gt;&lt;/span&gt;&lt;/div&gt;&lt;div style=&quot;font-size: 12px; text-align: justify;&quot;&gt;&lt;span style=&quot;padding: 0px 0px 0px 2px;&quot;&gt;&lt;span style=&quot;font-family: Consolas; font-size: 10pt; white-space: pre;&quot;&gt;&lt;font style=&quot;color: rgb(0, 0, 0);&quot;&gt;);&lt;/font&gt;&lt;/span&gt;&lt;/span&gt;&lt;/div&gt;&lt;/span&gt;&lt;/div&gt;" style="rounded=0;whiteSpace=wrap;html=1;fontSize=14;fontStyle=0;fillColor=none;" parent="1" vertex="1">
                    <mxGeometry x="976.3599999999999" y="2598.4200000000005" width="188.98" height="125.99" as="geometry"/>
                </mxCell>
                <mxCell id="131" value="&lt;i&gt;MIN&lt;/i&gt;(&lt;i&gt;a, b&lt;/i&gt;)" style="rounded=0;whiteSpace=wrap;html=1;fontSize=14;fillColor=none;" parent="1" vertex="1">
                    <mxGeometry x="1401.5699999999997" y="2803.1500000000005" width="63" height="31.49" as="geometry"/>
                </mxCell>
                <mxCell id="132" value="&lt;i&gt;MAX&lt;/i&gt;(&lt;i&gt;a, b&lt;/i&gt;)" style="rounded=0;whiteSpace=wrap;html=1;fontSize=14;fillColor=none;" parent="1" vertex="1">
                    <mxGeometry x="1401.58" y="2866.1400000000003" width="78.73" height="31.49" as="geometry"/>
                </mxCell>
                <mxCell id="133" value="&lt;i&gt;CLAMP&lt;/i&gt;(&lt;i&gt;a, b&lt;/i&gt;)" style="rounded=0;whiteSpace=wrap;html=1;fontSize=14;fillColor=none;" parent="1" vertex="1">
                    <mxGeometry x="1606.31" y="2787.4000000000005" width="94.48" height="31.49" as="geometry"/>
                </mxCell>
                <mxCell id="138" style="edgeStyle=orthogonalEdgeStyle;html=1;entryX=1;entryY=0.25;entryDx=0;entryDy=0;dashed=1;endArrow=block;endFill=0;exitX=0;exitY=0.5;exitDx=0;exitDy=0;" parent="1" source="137" target="62" edge="1">
                    <mxGeometry relative="1" as="geometry"/>
                </mxCell>
                <mxCell id="137" value="&lt;span style=&quot;padding: 0px 0px 0px 2px;&quot;&gt;&lt;span style=&quot;font-family: Consolas; white-space: pre;&quot;&gt;&lt;font style=&quot;color: rgb(0, 0, 0);&quot;&gt;&lt;i style=&quot;&quot;&gt;&quot;Stepper_Motor_Driver.c&quot;&lt;/i&gt;&lt;/font&gt;&lt;/span&gt;&lt;/span&gt;&lt;div&gt;&lt;span style=&quot;padding: 0px 0px 0px 2px;&quot;&gt;&lt;span style=&quot;font-family: Consolas; white-space: pre;&quot;&gt;&lt;font style=&quot;color: rgb(0, 0, 0);&quot;&gt;(Контроль вращения)&lt;/font&gt;&lt;/span&gt;&lt;/span&gt;&lt;/div&gt;&lt;div&gt;&lt;span style=&quot;padding: 0px 0px 0px 2px;&quot;&gt;&lt;div style=&quot;padding: 0px 0px 0px 2px;&quot;&gt;&lt;div style=&quot;font-family: Consolas; font-size: 10pt; white-space: pre;&quot;&gt;&lt;font style=&quot;color: rgb(0, 0, 0);&quot;&gt;&lt;p style=&quot;text-align: justify; margin: 0px;&quot;&gt;&lt;span style=&quot;font-weight: bold;&quot;&gt;void&lt;/span&gt; &lt;span style=&quot;font-weight: bold;&quot;&gt;Pin_SetLevl&lt;/span&gt;(&lt;/p&gt;&lt;p style=&quot;text-align: justify; margin: 0px;&quot;&gt;&lt;span style=&quot;font-weight: bold;&quot;&gt;  Bundle_Port_Pin&lt;/span&gt; *Pin,&lt;/p&gt;&lt;p style=&quot;text-align: justify; margin: 0px;&quot;&gt;  &lt;span style=&quot;font-weight: bold;&quot;&gt;GPIO_PinState&lt;/span&gt; State&lt;/p&gt;&lt;p style=&quot;text-align: justify; margin: 0px;&quot;&gt;);&lt;/p&gt;&lt;p style=&quot;text-align: justify; margin: 0px;&quot;&gt;&lt;span style=&quot;font-size: 10pt; font-weight: bold;&quot;&gt;void&lt;/span&gt;&lt;span style=&quot;font-size: 10pt;&quot;&gt; &lt;/span&gt;&lt;span style=&quot;font-size: 10pt; font-weight: bold;&quot;&gt;Motor_SetFrequency&lt;/span&gt;&lt;span style=&quot;font-size: 10pt;&quot;&gt;(&lt;/span&gt;&lt;/p&gt;&lt;p style=&quot;text-align: justify; margin: 0px;&quot;&gt;&lt;span style=&quot;font-size: 10pt; font-weight: bold;&quot;&gt;  Motor&lt;/span&gt;&lt;span style=&quot;font-size: 10pt;&quot;&gt; *Motor_xx,&lt;/span&gt;&lt;/p&gt;&lt;p style=&quot;text-align: justify; margin: 0px;&quot;&gt;&lt;span style=&quot;font-size: 10pt;&quot;&gt;  &lt;/span&gt;&lt;span style=&quot;font-size: 10pt; font-weight: bold;&quot;&gt;unsigned&lt;/span&gt;&lt;span style=&quot;font-size: 10pt;&quot;&gt; &lt;/span&gt;&lt;span style=&quot;font-size: 10pt; font-weight: bold;&quot;&gt;int&lt;/span&gt;&lt;span style=&quot;font-size: 10pt;&quot;&gt; frequency&lt;/span&gt;&lt;/p&gt;&lt;p style=&quot;text-align: justify; margin: 0px;&quot;&gt;&lt;span style=&quot;font-size: 10pt;&quot;&gt;);&lt;/span&gt;&lt;/p&gt;&lt;p style=&quot;text-align: justify; margin: 0px;&quot;&gt;&lt;span style=&quot;font-weight: bold;&quot;&gt;void&lt;/span&gt; &lt;span style=&quot;font-weight: bold;&quot;&gt;Motor_UpFrequency&lt;/span&gt;(&lt;span style=&quot;font-weight: bold;&quot;&gt;Motor&lt;/span&gt; *Motor_xx);&lt;/p&gt;&lt;p style=&quot;text-align: justify; margin: 0px;&quot;&gt;&lt;span style=&quot;font-weight: bold;&quot;&gt;void&lt;/span&gt; &lt;span style=&quot;font-weight: bold;&quot;&gt;Motor_DirRot&lt;/span&gt;(&lt;/p&gt;&lt;p style=&quot;text-align: justify; margin: 0px;&quot;&gt;&lt;span style=&quot;font-weight: bold;&quot;&gt;  Motor&lt;/span&gt; *Motor_xx,&lt;/p&gt;&lt;p style=&quot;text-align: justify; margin: 0px;&quot;&gt;  &lt;span style=&quot;font-weight: bold;&quot;&gt;GPIO_PinState&lt;/span&gt; direction_of_rotation&lt;/p&gt;&lt;p style=&quot;text-align: justify; margin: 0px;&quot;&gt;);&lt;/p&gt;&lt;p style=&quot;text-align: justify; margin: 0px;&quot;&gt;&lt;span style=&quot;font-weight: bold;&quot;&gt;void&lt;/span&gt; &lt;span style=&quot;font-weight: bold;&quot;&gt;Motor_Start&lt;/span&gt;(&lt;span style=&quot;font-weight: bold;&quot;&gt;Motor&lt;/span&gt; *Motor_xx);&lt;/p&gt;&lt;p style=&quot;text-align: justify; margin: 0px;&quot;&gt;&lt;span style=&quot;font-weight: bold;&quot;&gt;void&lt;/span&gt; &lt;span style=&quot;font-weight: bold;&quot;&gt;Motor_Stop&lt;/span&gt;(&lt;span style=&quot;font-weight: bold;&quot;&gt;Motor&lt;/span&gt; *Motor_xx);&lt;/p&gt;&lt;/font&gt;&lt;/div&gt;&lt;/div&gt;&lt;/span&gt;&lt;/div&gt;" style="rounded=0;whiteSpace=wrap;html=1;fontSize=14;fontStyle=0;labelBackgroundColor=none;fillColor=none;" parent="1" vertex="1">
                    <mxGeometry x="1952.7499999999998" y="2462.5999999999995" width="299.21" height="295.28" as="geometry"/>
                </mxCell>
                <mxCell id="142" style="edgeStyle=orthogonalEdgeStyle;html=1;entryX=1;entryY=0.75;entryDx=0;entryDy=0;endArrow=diamond;endFill=1;" parent="1" source="139" target="62" edge="1">
                    <mxGeometry relative="1" as="geometry"/>
                </mxCell>
                <mxCell id="139" value="&lt;i&gt;Motor&lt;/i&gt;" style="swimlane;fontStyle=0;childLayout=stackLayout;horizontal=1;startSize=30;horizontalStack=0;resizeParent=1;resizeParentMax=0;resizeLast=0;collapsible=1;marginBottom=0;whiteSpace=wrap;html=1;fontSize=14;fillColor=none;" parent="1" vertex="1">
                    <mxGeometry x="1866.1399999999999" y="2787.4000000000005" width="110.23" height="90" as="geometry"/>
                </mxCell>
                <mxCell id="140" value="Settings Setting" style="text;strokeColor=none;fillColor=none;align=left;verticalAlign=middle;spacingLeft=4;spacingRight=4;overflow=hidden;points=[[0,0.5],[1,0.5]];portConstraint=eastwest;rotatable=0;whiteSpace=wrap;html=1;fontSize=14;fontStyle=2" parent="139" vertex="1">
                    <mxGeometry y="30" width="110.23" height="30" as="geometry"/>
                </mxCell>
                <mxCell id="141" value="States State" style="text;strokeColor=none;fillColor=none;align=left;verticalAlign=middle;spacingLeft=4;spacingRight=4;overflow=hidden;points=[[0,0.5],[1,0.5]];portConstraint=eastwest;rotatable=0;whiteSpace=wrap;html=1;fontSize=14;fontStyle=2" parent="139" vertex="1">
                    <mxGeometry y="60" width="110.23" height="30" as="geometry"/>
                </mxCell>
                <mxCell id="172" style="edgeStyle=orthogonalEdgeStyle;html=1;entryX=0;entryY=0.5;entryDx=0;entryDy=0;endArrow=diamond;endFill=1;" edge="1" parent="1" source="145" target="141">
                    <mxGeometry relative="1" as="geometry"/>
                </mxCell>
                <mxCell id="145" value="&lt;i&gt;States&lt;/i&gt;" style="swimlane;fontStyle=0;childLayout=stackLayout;horizontal=1;startSize=30;horizontalStack=0;resizeParent=1;resizeParentMax=0;resizeLast=0;collapsible=1;marginBottom=0;whiteSpace=wrap;html=1;fontSize=14;fillColor=none;" parent="1" vertex="1">
                    <mxGeometry x="1653.54" y="2913.38" width="188.97" height="150" as="geometry">
                        <mxRectangle x="2025.58" y="2673.22" width="78.74" height="31.496" as="alternateBounds"/>
                    </mxGeometry>
                </mxCell>
                <mxCell id="146" value="unsigned int Frequency" style="text;strokeColor=none;fillColor=none;align=left;verticalAlign=middle;spacingLeft=4;spacingRight=4;overflow=hidden;points=[[0,0.5],[1,0.5]];portConstraint=eastwest;rotatable=0;whiteSpace=wrap;html=1;fontSize=14;fontStyle=2" parent="145" vertex="1">
                    <mxGeometry y="30" width="188.97" height="30" as="geometry"/>
                </mxCell>
                <mxCell id="147" value="unsigned char Functioning" style="text;strokeColor=none;fillColor=none;align=left;verticalAlign=middle;spacingLeft=4;spacingRight=4;overflow=hidden;points=[[0,0.5],[1,0.5]];portConstraint=eastwest;rotatable=0;whiteSpace=wrap;html=1;fontSize=14;fontStyle=2" parent="145" vertex="1">
                    <mxGeometry y="60" width="188.97" height="30" as="geometry"/>
                </mxCell>
                <mxCell id="149" value="unsigned int Old_value_tik" style="text;strokeColor=none;fillColor=none;align=left;verticalAlign=middle;spacingLeft=4;spacingRight=4;overflow=hidden;points=[[0,0.5],[1,0.5]];portConstraint=eastwest;rotatable=0;whiteSpace=wrap;html=1;fontSize=14;fontStyle=2" parent="145" vertex="1">
                    <mxGeometry y="90" width="188.97" height="30" as="geometry"/>
                </mxCell>
                <mxCell id="150" value="&lt;span style=&quot;color: rgb(0, 0, 0);&quot;&gt;unsigned int New_value_tik&lt;/span&gt;" style="text;strokeColor=none;fillColor=none;align=left;verticalAlign=middle;spacingLeft=4;spacingRight=4;overflow=hidden;points=[[0,0.5],[1,0.5]];portConstraint=eastwest;rotatable=0;whiteSpace=wrap;html=1;fontSize=14;fontStyle=2" parent="145" vertex="1">
                    <mxGeometry y="120" width="188.97" height="30" as="geometry"/>
                </mxCell>
                <mxCell id="157" style="edgeStyle=orthogonalEdgeStyle;html=1;entryX=1;entryY=0.5;entryDx=0;entryDy=0;endArrow=diamond;endFill=1;" parent="1" source="152" target="140" edge="1">
                    <mxGeometry relative="1" as="geometry"/>
                </mxCell>
                <mxCell id="152" value="&lt;i&gt;Settings&lt;/i&gt;" style="swimlane;fontStyle=0;childLayout=stackLayout;horizontal=1;startSize=30;horizontalStack=0;resizeParent=1;resizeParentMax=0;resizeLast=0;collapsible=1;marginBottom=0;whiteSpace=wrap;html=1;fontSize=14;fillColor=none;" parent="1" vertex="1">
                    <mxGeometry x="1921.2600000000002" y="2913.38" width="204.72" height="120" as="geometry"/>
                </mxCell>
                <mxCell id="153" value="Pins Pin" style="text;strokeColor=none;fillColor=none;align=left;verticalAlign=middle;spacingLeft=4;spacingRight=4;overflow=hidden;points=[[0,0.5],[1,0.5]];portConstraint=eastwest;rotatable=0;whiteSpace=wrap;html=1;fontSize=14;fontStyle=2" parent="152" vertex="1">
                    <mxGeometry y="30" width="204.72" height="30" as="geometry"/>
                </mxCell>
                <mxCell id="154" value="Frequensy_settings Frequency" style="text;strokeColor=none;fillColor=none;align=left;verticalAlign=middle;spacingLeft=4;spacingRight=4;overflow=hidden;points=[[0,0.5],[1,0.5]];portConstraint=eastwest;rotatable=0;whiteSpace=wrap;html=1;fontSize=14;fontStyle=2" parent="152" vertex="1">
                    <mxGeometry y="60" width="204.72" height="30" as="geometry"/>
                </mxCell>
                <mxCell id="155" value="Timers Timer" style="text;strokeColor=none;fillColor=none;align=left;verticalAlign=middle;spacingLeft=4;spacingRight=4;overflow=hidden;points=[[0,0.5],[1,0.5]];portConstraint=eastwest;rotatable=0;whiteSpace=wrap;html=1;fontSize=14;fontStyle=2" parent="152" vertex="1">
                    <mxGeometry y="90" width="204.72" height="30" as="geometry"/>
                </mxCell>
                <mxCell id="173" style="edgeStyle=orthogonalEdgeStyle;html=1;entryX=0;entryY=0.5;entryDx=0;entryDy=0;endArrow=diamond;endFill=1;" edge="1" parent="1" source="158" target="155">
                    <mxGeometry relative="1" as="geometry"/>
                </mxCell>
                <mxCell id="158" value="&lt;i&gt;Timers&lt;/i&gt;" style="swimlane;fontStyle=0;childLayout=stackLayout;horizontal=1;startSize=30;horizontalStack=0;resizeParent=1;resizeParentMax=0;resizeLast=0;collapsible=1;marginBottom=0;whiteSpace=wrap;html=1;fontSize=14;fillColor=none;" parent="1" vertex="1">
                    <mxGeometry x="1779.5199999999995" y="3102.3599999999997" width="204.72" height="90" as="geometry"/>
                </mxCell>
                <mxCell id="159" value="TIM_HandleTypeDef *Number" style="text;strokeColor=none;fillColor=none;align=left;verticalAlign=middle;spacingLeft=4;spacingRight=4;overflow=hidden;points=[[0,0.5],[1,0.5]];portConstraint=eastwest;rotatable=0;whiteSpace=wrap;html=1;fontSize=14;fontStyle=2" parent="158" vertex="1">
                    <mxGeometry y="30" width="204.72" height="30" as="geometry"/>
                </mxCell>
                <mxCell id="160" value="unsigned int Channel" style="text;strokeColor=none;fillColor=none;align=left;verticalAlign=middle;spacingLeft=4;spacingRight=4;overflow=hidden;points=[[0,0.5],[1,0.5]];portConstraint=eastwest;rotatable=0;whiteSpace=wrap;html=1;fontSize=14;fontStyle=2" parent="158" vertex="1">
                    <mxGeometry y="60" width="204.72" height="30" as="geometry"/>
                </mxCell>
                <mxCell id="174" style="edgeStyle=orthogonalEdgeStyle;html=1;entryX=1;entryY=0.5;entryDx=0;entryDy=0;endArrow=diamond;endFill=1;" edge="1" parent="1" source="163" target="154">
                    <mxGeometry relative="1" as="geometry"/>
                </mxCell>
                <mxCell id="163" value="&lt;span style=&quot;color: rgb(0, 0, 0); font-style: italic; text-align: left;&quot;&gt;Frequensy_settings&lt;/span&gt;" style="swimlane;fontStyle=0;childLayout=stackLayout;horizontal=1;startSize=30;horizontalStack=0;resizeParent=1;resizeParentMax=0;resizeLast=0;collapsible=1;marginBottom=0;whiteSpace=wrap;html=1;fontSize=14;fillColor=none;" parent="1" vertex="1">
                    <mxGeometry x="2047.2399999999998" y="3070.8600000000006" width="220.47" height="120" as="geometry"/>
                </mxCell>
                <mxCell id="164" value="unsigned int Maximum_pulse" style="text;strokeColor=none;fillColor=none;align=left;verticalAlign=middle;spacingLeft=4;spacingRight=4;overflow=hidden;points=[[0,0.5],[1,0.5]];portConstraint=eastwest;rotatable=0;whiteSpace=wrap;html=1;fontSize=14;fontStyle=2" parent="163" vertex="1">
                    <mxGeometry y="30" width="220.47" height="30" as="geometry"/>
                </mxCell>
                <mxCell id="165" value="unsigned int&amp;nbsp;&lt;span style=&quot;color: rgb(0, 0, 0);&quot;&gt;Minimum_pulse&lt;/span&gt;" style="text;strokeColor=none;fillColor=none;align=left;verticalAlign=middle;spacingLeft=4;spacingRight=4;overflow=hidden;points=[[0,0.5],[1,0.5]];portConstraint=eastwest;rotatable=0;whiteSpace=wrap;html=1;fontSize=14;fontStyle=2" parent="163" vertex="1">
                    <mxGeometry y="60" width="220.47" height="30" as="geometry"/>
                </mxCell>
                <mxCell id="167" value="&lt;span style=&quot;color: rgb(0, 0, 0);&quot;&gt;unsigned int Step_up_the&lt;/span&gt;&lt;span style=&quot;color: rgb(0, 0, 0);&quot;&gt;_pulse&lt;/span&gt;" style="text;strokeColor=none;fillColor=none;align=left;verticalAlign=middle;spacingLeft=4;spacingRight=4;overflow=hidden;points=[[0,0.5],[1,0.5]];portConstraint=eastwest;rotatable=0;whiteSpace=wrap;html=1;fontSize=14;fontStyle=2" parent="163" vertex="1">
                    <mxGeometry y="90" width="220.47" height="30" as="geometry"/>
                </mxCell>
                <mxCell id="180" style="edgeStyle=orthogonalEdgeStyle;html=1;entryX=1;entryY=0.5;entryDx=0;entryDy=0;endArrow=diamond;endFill=1;" edge="1" parent="1" source="176" target="153">
                    <mxGeometry relative="1" as="geometry"/>
                </mxCell>
                <mxCell id="176" value="&lt;span style=&quot;color: rgb(0, 0, 0); font-style: italic; text-align: left;&quot;&gt;Pins&lt;/span&gt;" style="swimlane;fontStyle=1;childLayout=stackLayout;horizontal=1;startSize=30;horizontalStack=0;resizeParent=1;resizeParentMax=0;resizeLast=0;collapsible=1;marginBottom=0;whiteSpace=wrap;html=1;fontSize=14;fillColor=none;" vertex="1" parent="1">
                    <mxGeometry x="2299.21" y="2992.12" width="141.73" height="120" as="geometry"/>
                </mxCell>
                <mxCell id="177" value="Bundle_pirt_Pin ENA" style="text;strokeColor=none;fillColor=none;align=left;verticalAlign=middle;spacingLeft=4;spacingRight=4;overflow=hidden;points=[[0,0.5],[1,0.5]];portConstraint=eastwest;rotatable=0;whiteSpace=wrap;html=1;fontSize=14;fontStyle=2" vertex="1" parent="176">
                    <mxGeometry y="30" width="141.73" height="30" as="geometry"/>
                </mxCell>
                <mxCell id="178" value="&lt;span style=&quot;color: rgb(0, 0, 0);&quot;&gt;Bundle_pirt_Pin PUL&lt;/span&gt;" style="text;strokeColor=none;fillColor=none;align=left;verticalAlign=middle;spacingLeft=4;spacingRight=4;overflow=hidden;points=[[0,0.5],[1,0.5]];portConstraint=eastwest;rotatable=0;whiteSpace=wrap;html=1;fontSize=14;fontStyle=2" vertex="1" parent="176">
                    <mxGeometry y="60" width="141.73" height="30" as="geometry"/>
                </mxCell>
                <mxCell id="179" value="&lt;span style=&quot;color: rgb(0, 0, 0);&quot;&gt;Bundle_pirt_Pin DIR&lt;/span&gt;" style="text;strokeColor=none;fillColor=none;align=left;verticalAlign=middle;spacingLeft=4;spacingRight=4;overflow=hidden;points=[[0,0.5],[1,0.5]];portConstraint=eastwest;rotatable=0;whiteSpace=wrap;html=1;fontSize=14;fontStyle=2" vertex="1" parent="176">
                    <mxGeometry y="90" width="141.73" height="30" as="geometry"/>
                </mxCell>
                <mxCell id="186" value="" style="edgeStyle=none;html=1;endArrow=diamond;endFill=1;" edge="1" parent="1" source="182" target="179">
                    <mxGeometry relative="1" as="geometry"/>
                </mxCell>
                <mxCell id="182" value="&lt;span style=&quot;color: rgb(0, 0, 0); font-style: italic; font-weight: 400; text-align: left;&quot;&gt;Bundle_pirt_Pin&lt;/span&gt;" style="swimlane;fontStyle=1;childLayout=stackLayout;horizontal=1;startSize=30;horizontalStack=0;resizeParent=1;resizeParentMax=0;resizeLast=0;collapsible=1;marginBottom=0;whiteSpace=wrap;html=1;fontSize=14;fillColor=none;" vertex="1" parent="1">
                    <mxGeometry x="2293.31" y="3228.34" width="153.54" height="90" as="geometry"/>
                </mxCell>
                <mxCell id="183" value="GPIO_TypeDef *Port" style="text;strokeColor=none;fillColor=none;align=left;verticalAlign=middle;spacingLeft=4;spacingRight=4;overflow=hidden;points=[[0,0.5],[1,0.5]];portConstraint=eastwest;rotatable=0;whiteSpace=wrap;html=1;fontSize=14;fontStyle=2" vertex="1" parent="182">
                    <mxGeometry y="30" width="153.54" height="30" as="geometry"/>
                </mxCell>
                <mxCell id="184" value="&lt;span style=&quot;color: rgb(0, 0, 0);&quot;&gt;unsigned short Pin&lt;/span&gt;" style="text;strokeColor=none;fillColor=none;align=left;verticalAlign=middle;spacingLeft=4;spacingRight=4;overflow=hidden;points=[[0,0.5],[1,0.5]];portConstraint=eastwest;rotatable=0;whiteSpace=wrap;html=1;fontSize=14;fontStyle=2" vertex="1" parent="182">
                    <mxGeometry y="60" width="153.54" height="30" as="geometry"/>
                </mxCell>
                <mxCell id="197" style="edgeStyle=orthogonalEdgeStyle;html=1;entryX=0;entryY=0.75;entryDx=0;entryDy=0;exitX=0.5;exitY=0;exitDx=0;exitDy=0;endArrow=diamond;endFill=1;" edge="1" parent="1" source="188" target="70">
                    <mxGeometry relative="1" as="geometry"/>
                </mxCell>
                <mxCell id="188" value="&lt;i&gt;Raspberry&lt;/i&gt;" style="swimlane;fontStyle=0;childLayout=stackLayout;horizontal=1;startSize=30;horizontalStack=0;resizeParent=1;resizeParentMax=0;resizeLast=0;collapsible=1;marginBottom=0;whiteSpace=wrap;html=1;fontSize=14;fillColor=none;" vertex="1" parent="1">
                    <mxGeometry x="1165.36" y="2283.4599999999996" width="236.22" height="270" as="geometry">
                        <mxRectangle x="1212.6" y="2440.9399999999996" width="94.488" height="31.496" as="alternateBounds"/>
                    </mxGeometry>
                </mxCell>
                <mxCell id="189" value="UART_HandleTypeDef *Channal" style="text;strokeColor=none;fillColor=none;align=left;verticalAlign=middle;spacingLeft=4;spacingRight=4;overflow=hidden;points=[[0,0.5],[1,0.5]];portConstraint=eastwest;rotatable=0;whiteSpace=wrap;html=1;fontSize=14;fontStyle=2" vertex="1" parent="188">
                    <mxGeometry y="30" width="236.22" height="30" as="geometry"/>
                </mxCell>
                <mxCell id="190" value="uinsigned char transmitting" style="text;strokeColor=none;fillColor=none;align=left;verticalAlign=middle;spacingLeft=4;spacingRight=4;overflow=hidden;points=[[0,0.5],[1,0.5]];portConstraint=eastwest;rotatable=0;whiteSpace=wrap;html=1;fontSize=14;fontStyle=2" vertex="1" parent="188">
                    <mxGeometry y="60" width="236.22" height="30" as="geometry"/>
                </mxCell>
                <mxCell id="196" value="&lt;span style=&quot;color: rgb(0, 0, 0);&quot;&gt;uinsigned char Rx_data&lt;span style=&quot;font-style: normal;&quot;&gt;[21]&lt;/span&gt;&lt;/span&gt;" style="text;strokeColor=none;fillColor=none;align=left;verticalAlign=middle;spacingLeft=4;spacingRight=4;overflow=hidden;points=[[0,0.5],[1,0.5]];portConstraint=eastwest;rotatable=0;whiteSpace=wrap;html=1;fontSize=14;fontStyle=2" vertex="1" parent="188">
                    <mxGeometry y="90" width="236.22" height="30" as="geometry"/>
                </mxCell>
                <mxCell id="195" value="&lt;span style=&quot;color: rgb(0, 0, 0);&quot;&gt;uinsigned char Tx_data&lt;/span&gt;&lt;span style=&quot;font-style: normal;&quot;&gt;[13]&lt;/span&gt;" style="text;strokeColor=none;fillColor=none;align=left;verticalAlign=middle;spacingLeft=4;spacingRight=4;overflow=hidden;points=[[0,0.5],[1,0.5]];portConstraint=eastwest;rotatable=0;whiteSpace=wrap;html=1;fontSize=14;fontStyle=2" vertex="1" parent="188">
                    <mxGeometry y="120" width="236.22" height="30" as="geometry"/>
                </mxCell>
                <mxCell id="194" value="float Azimuth" style="text;strokeColor=none;fillColor=none;align=left;verticalAlign=middle;spacingLeft=4;spacingRight=4;overflow=hidden;points=[[0,0.5],[1,0.5]];portConstraint=eastwest;rotatable=0;whiteSpace=wrap;html=1;fontSize=14;fontStyle=2" vertex="1" parent="188">
                    <mxGeometry y="150" width="236.22" height="30" as="geometry"/>
                </mxCell>
                <mxCell id="193" value="float Elevation" style="text;strokeColor=none;fillColor=none;align=left;verticalAlign=middle;spacingLeft=4;spacingRight=4;overflow=hidden;points=[[0,0.5],[1,0.5]];portConstraint=eastwest;rotatable=0;whiteSpace=wrap;html=1;fontSize=14;fontStyle=2" vertex="1" parent="188">
                    <mxGeometry y="180" width="236.22" height="30" as="geometry"/>
                </mxCell>
                <mxCell id="192" value="&lt;span style=&quot;color: rgb(0, 0, 0);&quot;&gt;uinsigned char Mode&lt;/span&gt;" style="text;strokeColor=none;fillColor=none;align=left;verticalAlign=middle;spacingLeft=4;spacingRight=4;overflow=hidden;points=[[0,0.5],[1,0.5]];portConstraint=eastwest;rotatable=0;whiteSpace=wrap;html=1;fontSize=14;fontStyle=2" vertex="1" parent="188">
                    <mxGeometry y="210" width="236.22" height="30" as="geometry"/>
                </mxCell>
                <mxCell id="191" value="&lt;span style=&quot;color: rgb(0, 0, 0);&quot;&gt;uinsigned char Fire&lt;/span&gt;" style="text;strokeColor=none;fillColor=none;align=left;verticalAlign=middle;spacingLeft=4;spacingRight=4;overflow=hidden;points=[[0,0.5],[1,0.5]];portConstraint=eastwest;rotatable=0;whiteSpace=wrap;html=1;fontSize=14;fontStyle=2" vertex="1" parent="188">
                    <mxGeometry y="240" width="236.22" height="30" as="geometry"/>
                </mxCell>
                <mxCell id="200" style="edgeStyle=none;html=1;entryX=0;entryY=0.5;entryDx=0;entryDy=0;endArrow=block;endFill=0;dashed=1;" edge="1" parent="1" source="198" target="70">
                    <mxGeometry relative="1" as="geometry"/>
                </mxCell>
                <mxCell id="198" value="&lt;span style=&quot;padding: 0px 0px 0px 2px;&quot;&gt;&lt;span style=&quot;font-family: Consolas; white-space: pre;&quot;&gt;&lt;font style=&quot;color: rgb(0, 0, 0);&quot;&gt;&lt;i&gt;&quot;Raspberry.c&quot;&lt;/i&gt;&lt;/font&gt;&lt;/span&gt;&lt;/span&gt;&lt;div&gt;&lt;span style=&quot;padding: 0px 0px 0px 2px;&quot;&gt;&lt;span style=&quot;font-family: Consolas; white-space: pre;&quot;&gt;&lt;font style=&quot;color: rgb(0, 0, 0);&quot;&gt;(Парсинг данных и&lt;/font&gt;&lt;/span&gt;&lt;/span&gt;&lt;/div&gt;&lt;div&gt;&lt;span style=&quot;padding: 0px 0px 0px 2px;&quot;&gt;&lt;span style=&quot;font-family: Consolas; white-space: pre;&quot;&gt;&lt;font style=&quot;color: rgb(0, 0, 0);&quot;&gt;формирование сообщений)&lt;/font&gt;&lt;/span&gt;&lt;/span&gt;&lt;/div&gt;&lt;div style=&quot;text-align: justify;&quot;&gt;&lt;span style=&quot;padding: 0px 0px 0px 2px;&quot;&gt;&lt;span style=&quot;font-family: Consolas; white-space: pre;&quot;&gt;&lt;font style=&quot;color: rgb(0, 0, 0);&quot;&gt;void Raspberry_DatPars(void)&lt;/font&gt;&lt;/span&gt;&lt;/span&gt;&lt;/div&gt;&lt;div style=&quot;text-align: justify;&quot;&gt;&lt;span style=&quot;padding: 0px 0px 0px 2px;&quot;&gt;&lt;span style=&quot;font-family: Consolas; white-space: pre;&quot;&gt;&lt;font style=&quot;color: rgb(0, 0, 0);&quot;&gt;void Raspberry_CreatMes(void)&lt;/font&gt;&lt;/span&gt;&lt;/span&gt;&lt;/div&gt;" style="rounded=0;whiteSpace=wrap;html=1;fontSize=14;fontStyle=0;fillColor=none;" vertex="1" parent="1">
                    <mxGeometry x="905.51" y="2181.1" width="228.34" height="94.49" as="geometry"/>
                </mxCell>
                <mxCell id="209" style="edgeStyle=orthogonalEdgeStyle;html=1;entryX=1;entryY=0.25;entryDx=0;entryDy=0;dashed=1;endArrow=block;endFill=0;exitX=0.5;exitY=1;exitDx=0;exitDy=0;" edge="1" parent="1" source="201" target="64">
                    <mxGeometry relative="1" as="geometry"/>
                </mxCell>
                <mxCell id="201" value="&lt;i&gt;&lt;font style=&quot;color: rgb(0, 0, 0);&quot;&gt;&quot;Encoder.c&quot;&lt;/font&gt;&lt;/i&gt;&lt;div&gt;&lt;font style=&quot;color: rgb(0, 0, 0);&quot;&gt;(Чтение действительных углов системы)&lt;/font&gt;&lt;/div&gt;&lt;div&gt;&lt;div style=&quot;padding: 0px 0px 0px 2px;&quot;&gt;&lt;div style=&quot;font-family: Consolas; font-size: 10pt; white-space: pre;&quot;&gt;&lt;p style=&quot;text-align: justify; margin: 0px;&quot;&gt;&lt;font style=&quot;color: rgb(0, 0, 0);&quot;&gt;&lt;span style=&quot;font-weight: bold;&quot;&gt;void&lt;/span&gt; &lt;span style=&quot;font-weight: bold;&quot;&gt;Encoder_Init&lt;/span&gt;(&lt;span style=&quot;font-weight: bold;&quot;&gt;Encoder&lt;/span&gt; *Encoder_xx);&lt;/font&gt;&lt;/p&gt;&lt;p style=&quot;text-align: justify; margin: 0px;&quot;&gt;&lt;font style=&quot;color: rgb(0, 0, 0);&quot;&gt;&lt;span style=&quot;font-weight: bold;&quot;&gt;void&lt;/span&gt; &lt;span style=&quot;font-weight: bold;&quot;&gt;Encoder_GetAngular&lt;/span&gt;(&lt;span style=&quot;font-weight: bold;&quot;&gt;Encoder&lt;/span&gt; *Encoder_xx);&lt;/font&gt;&lt;/p&gt;&lt;/div&gt;&lt;/div&gt;&lt;/div&gt;" style="rounded=0;whiteSpace=wrap;html=1;fontSize=14;fillColor=none;labelBackgroundColor=none;" vertex="1" parent="1">
                    <mxGeometry x="1921.26" y="2110.23" width="330.71" height="62.99" as="geometry"/>
                </mxCell>
                <mxCell id="208" style="edgeStyle=orthogonalEdgeStyle;html=1;entryX=1;entryY=0.75;entryDx=0;entryDy=0;endArrow=diamond;endFill=1;exitX=0.5;exitY=0;exitDx=0;exitDy=0;" edge="1" parent="1" source="203" target="64">
                    <mxGeometry relative="1" as="geometry"/>
                </mxCell>
                <mxCell id="203" value="&lt;i&gt;Encoder&lt;/i&gt;" style="swimlane;fontStyle=0;childLayout=stackLayout;horizontal=1;startSize=30;horizontalStack=0;resizeParent=1;resizeParentMax=0;resizeLast=0;collapsible=1;marginBottom=0;whiteSpace=wrap;html=1;fontSize=14;fillColor=none;" vertex="1" parent="1">
                    <mxGeometry x="1921.26" y="2283.46" width="196.85" height="150" as="geometry"/>
                </mxCell>
                <mxCell id="204" value="&lt;span style=&quot;color: rgb(0, 0, 0);&quot;&gt;Bundle_pirt_Pin Port_A&lt;/span&gt;" style="text;strokeColor=none;fillColor=none;align=left;verticalAlign=middle;spacingLeft=4;spacingRight=4;overflow=hidden;points=[[0,0.5],[1,0.5]];portConstraint=eastwest;rotatable=0;whiteSpace=wrap;html=1;fontSize=14;fontStyle=2" vertex="1" parent="203">
                    <mxGeometry y="30" width="196.85" height="30" as="geometry"/>
                </mxCell>
                <mxCell id="207" value="&lt;span style=&quot;color: rgb(0, 0, 0);&quot;&gt;Bundle_pirt_Pin Port_B&lt;/span&gt;" style="text;strokeColor=none;fillColor=none;align=left;verticalAlign=middle;spacingLeft=4;spacingRight=4;overflow=hidden;points=[[0,0.5],[1,0.5]];portConstraint=eastwest;rotatable=0;whiteSpace=wrap;html=1;fontSize=14;fontStyle=2" vertex="1" parent="203">
                    <mxGeometry y="60" width="196.85" height="30" as="geometry"/>
                </mxCell>
                <mxCell id="206" value="TIM_HandleTypeDef *Timer" style="text;strokeColor=none;fillColor=none;align=left;verticalAlign=middle;spacingLeft=4;spacingRight=4;overflow=hidden;points=[[0,0.5],[1,0.5]];portConstraint=eastwest;rotatable=0;whiteSpace=wrap;html=1;fontSize=14;fontStyle=2" vertex="1" parent="203">
                    <mxGeometry y="90" width="196.85" height="30" as="geometry"/>
                </mxCell>
                <mxCell id="205" value="Pulses Puls" style="text;strokeColor=none;fillColor=none;align=left;verticalAlign=middle;spacingLeft=4;spacingRight=4;overflow=hidden;points=[[0,0.5],[1,0.5]];portConstraint=eastwest;rotatable=0;whiteSpace=wrap;html=1;fontSize=14;fontStyle=2" vertex="1" parent="203">
                    <mxGeometry y="120" width="196.85" height="30" as="geometry"/>
                </mxCell>
                <mxCell id="215" style="edgeStyle=orthogonalEdgeStyle;html=1;entryX=1;entryY=0.5;entryDx=0;entryDy=0;endArrow=diamond;endFill=1;" edge="1" parent="1" source="210" target="205">
                    <mxGeometry relative="1" as="geometry"/>
                </mxCell>
                <mxCell id="210" value="&lt;span style=&quot;color: rgb(0, 0, 0); font-style: italic; text-align: left;&quot;&gt;Pulses&lt;/span&gt;" style="swimlane;fontStyle=0;childLayout=stackLayout;horizontal=1;startSize=30;horizontalStack=0;resizeParent=1;resizeParentMax=0;resizeLast=0;collapsible=1;marginBottom=0;whiteSpace=wrap;html=1;fontSize=14;fillColor=none;" vertex="1" parent="1">
                    <mxGeometry x="2283.46" y="2456.69" width="251.97" height="120" as="geometry"/>
                </mxCell>
                <mxCell id="211" value="&lt;span style=&quot;color: rgb(0, 0, 0);&quot;&gt;unsigned short Pulse_per_revolution&lt;/span&gt;" style="text;strokeColor=none;fillColor=none;align=left;verticalAlign=middle;spacingLeft=4;spacingRight=4;overflow=hidden;points=[[0,0.5],[1,0.5]];portConstraint=eastwest;rotatable=0;whiteSpace=wrap;html=1;fontSize=14;fontStyle=2" vertex="1" parent="210">
                    <mxGeometry y="30" width="251.97" height="30" as="geometry"/>
                </mxCell>
                <mxCell id="212" value="&lt;span style=&quot;color: rgb(0, 0, 0);&quot;&gt;unsigned short Maximum&lt;/span&gt;" style="text;strokeColor=none;fillColor=none;align=left;verticalAlign=middle;spacingLeft=4;spacingRight=4;overflow=hidden;points=[[0,0.5],[1,0.5]];portConstraint=eastwest;rotatable=0;whiteSpace=wrap;html=1;fontSize=14;fontStyle=2" vertex="1" parent="210">
                    <mxGeometry y="60" width="251.97" height="30" as="geometry"/>
                </mxCell>
                <mxCell id="213" value="&lt;span style=&quot;color: rgb(0, 0, 0);&quot;&gt;unsigned short Minimum&lt;/span&gt;" style="text;strokeColor=none;fillColor=none;align=left;verticalAlign=middle;spacingLeft=4;spacingRight=4;overflow=hidden;points=[[0,0.5],[1,0.5]];portConstraint=eastwest;rotatable=0;whiteSpace=wrap;html=1;fontSize=14;fontStyle=2" vertex="1" parent="210">
                    <mxGeometry y="90" width="251.97" height="30" as="geometry"/>
                </mxCell>
                <mxCell id="219" style="edgeStyle=orthogonalEdgeStyle;html=1;exitX=0.25;exitY=1;exitDx=0;exitDy=0;entryX=0.5;entryY=0;entryDx=0;entryDy=0;endArrow=open;endFill=0;dashed=1;" edge="1" parent="1" source="72" target="70">
                    <mxGeometry relative="1" as="geometry"/>
                </mxCell>
                <mxCell id="225" style="edgeStyle=orthogonalEdgeStyle;html=1;entryX=0;entryY=0.5;entryDx=0;entryDy=0;dashed=1;endArrow=block;endFill=0;" edge="1" parent="1" source="224" target="72">
                    <mxGeometry relative="1" as="geometry"/>
                </mxCell>
                <mxCell id="224" value="&lt;span style=&quot;padding: 0px 0px 0px 2px;&quot;&gt;&lt;span style=&quot;font-family: Consolas; white-space: pre;&quot;&gt;&lt;font style=&quot;&quot;&gt;&lt;i&gt;&quot;Operating_mode.h&quot;&lt;/i&gt;&lt;/font&gt;&lt;/span&gt;&lt;/span&gt;&lt;div&gt;&lt;span style=&quot;padding: 0px 0px 0px 2px;&quot;&gt;&lt;span style=&quot;font-family: Consolas; white-space: pre;&quot;&gt;&lt;font style=&quot;&quot;&gt;(Режимы работы системы)&lt;/font&gt;&lt;/span&gt;&lt;/span&gt;&lt;/div&gt;&lt;div&gt;&lt;span style=&quot;padding: 0px 0px 0px 2px;&quot;&gt;&lt;span style=&quot;font-family: Consolas; white-space: pre;&quot;&gt;&lt;font style=&quot;&quot;&gt;&lt;br&gt;&lt;/font&gt;&lt;/span&gt;&lt;/span&gt;&lt;/div&gt;&lt;div style=&quot;text-align: left;&quot;&gt;&lt;font style=&quot;&quot;&gt;&lt;span style=&quot;font-family: Consolas; font-size: 10pt; white-space: pre; font-weight: bold;&quot;&gt;void&lt;/span&gt;&lt;span style=&quot;font-family: Consolas; font-size: 10pt; white-space: pre;&quot;&gt; &lt;/span&gt;&lt;span style=&quot;font-family: Consolas; font-size: 10pt; white-space: pre; font-weight: bold;&quot;&gt;Mode_Manual&lt;/span&gt;&lt;span style=&quot;font-family: Consolas; font-size: 10pt; white-space: pre;&quot;&gt;(&lt;/span&gt;&lt;span style=&quot;font-family: Consolas; font-size: 10pt; white-space: pre; font-weight: bold;&quot;&gt;Motor&lt;/span&gt;&lt;span style=&quot;font-family: Consolas; font-size: 10pt; white-space: pre;&quot;&gt; &lt;/span&gt;&lt;span style=&quot;font-family: Consolas; font-size: 10pt; white-space: pre;&quot;&gt;*&lt;/span&gt;&lt;span style=&quot;font-family: Consolas; font-size: 10pt; white-space: pre;&quot;&gt;Motor_xx&lt;/span&gt;&lt;span style=&quot;font-family: Consolas; font-size: 10pt; white-space: pre;&quot;&gt;)&lt;/span&gt;&lt;span style=&quot;font-family: Consolas; font-size: 10pt; white-space: pre;&quot;&gt;;&lt;/span&gt;&lt;/font&gt;&lt;/div&gt;&lt;div style=&quot;text-align: left;&quot;&gt;&lt;font style=&quot;&quot;&gt;&lt;span style=&quot;font-family: Consolas; font-size: 10pt; white-space: pre; font-weight: bold;&quot;&gt;void&lt;/span&gt;&lt;span style=&quot;font-family: Consolas; font-size: 10pt; white-space: pre;&quot;&gt; &lt;/span&gt;&lt;span style=&quot;font-family: Consolas; font-size: 10pt; white-space: pre; font-weight: bold;&quot;&gt;Mode_Semi_automatic&lt;/span&gt;&lt;span style=&quot;font-family: Consolas; font-size: 10pt; white-space: pre;&quot;&gt;(&lt;/span&gt;&lt;span style=&quot;font-family: Consolas; font-size: 10pt; white-space: pre; font-weight: bold;&quot;&gt;Motor&lt;/span&gt;&lt;span style=&quot;font-family: Consolas; font-size: 10pt; white-space: pre;&quot;&gt; &lt;/span&gt;&lt;span style=&quot;font-family: Consolas; font-size: 10pt; white-space: pre;&quot;&gt;*&lt;/span&gt;&lt;span style=&quot;font-family: Consolas; font-size: 10pt; white-space: pre;&quot;&gt;Motor_xx&lt;/span&gt;&lt;span style=&quot;font-family: Consolas; font-size: 10pt; white-space: pre;&quot;&gt;)&lt;/span&gt;&lt;span style=&quot;font-family: Consolas; font-size: 10pt; white-space: pre;&quot;&gt;;&lt;/span&gt;&lt;/font&gt;&lt;/div&gt;&lt;div style=&quot;text-align: left;&quot;&gt;&lt;font style=&quot;&quot;&gt;&lt;span style=&quot;font-family: Consolas; font-size: 10pt; white-space: pre; font-weight: bold;&quot;&gt;void&lt;/span&gt;&lt;span style=&quot;font-family: Consolas; font-size: 10pt; white-space: pre;&quot;&gt; &lt;/span&gt;&lt;span style=&quot;font-family: Consolas; font-size: 10pt; white-space: pre; font-weight: bold;&quot;&gt;Mode_Moving_away_from_borders&lt;/span&gt;&lt;span style=&quot;font-family: Consolas; font-size: 10pt; white-space: pre;&quot;&gt;(&lt;/span&gt;&lt;/font&gt;&lt;/div&gt;&lt;div style=&quot;text-align: left;&quot;&gt;&lt;font style=&quot;&quot;&gt;&lt;span style=&quot;font-family: Consolas; font-size: 10pt; white-space: pre; font-weight: bold;&quot;&gt;  Motor&lt;/span&gt;&lt;span style=&quot;font-family: Consolas; font-size: 10pt; white-space: pre;&quot;&gt; &lt;/span&gt;&lt;span style=&quot;font-family: Consolas; font-size: 10pt; white-space: pre;&quot;&gt;*&lt;/span&gt;&lt;span style=&quot;font-family: Consolas; font-size: 10pt; white-space: pre;&quot;&gt;Motor_xx&lt;/span&gt;&lt;span style=&quot;font-family: Consolas; font-size: 10pt; white-space: pre;&quot;&gt;,&lt;/span&gt;&lt;/font&gt;&lt;/div&gt;&lt;div style=&quot;text-align: left;&quot;&gt;&lt;font style=&quot;&quot;&gt;&lt;span style=&quot;font-family: Consolas; font-size: 10pt; white-space: pre;&quot;&gt;  &lt;/span&gt;&lt;span style=&quot;font-family: Consolas; font-size: 10pt; white-space: pre; font-weight: bold;&quot;&gt;float&lt;/span&gt;&lt;span style=&quot;font-family: Consolas; font-size: 10pt; white-space: pre;&quot;&gt; &lt;/span&gt;&lt;span style=&quot;font-family: Consolas; font-size: 10pt; white-space: pre;&quot;&gt;Incremtnt_limit&lt;/span&gt;&lt;/font&gt;&lt;/div&gt;&lt;div style=&quot;text-align: left;&quot;&gt;&lt;font style=&quot;&quot;&gt;&lt;span style=&quot;font-family: Consolas; font-size: 10pt; white-space: pre;&quot;&gt;)&lt;/span&gt;&lt;span style=&quot;font-family: Consolas; font-size: 10pt; white-space: pre;&quot;&gt;;&lt;/span&gt;&lt;/font&gt;&lt;/div&gt;&lt;div style=&quot;text-align: left;&quot;&gt;&lt;font style=&quot;&quot;&gt;&lt;span style=&quot;font-family: Consolas; font-size: 10pt; white-space: pre; font-weight: bold;&quot;&gt;void&lt;/span&gt;&lt;span style=&quot;font-family: Consolas; font-size: 10pt; white-space: pre;&quot;&gt; &lt;/span&gt;&lt;span style=&quot;font-family: Consolas; font-size: 10pt; white-space: pre; font-weight: bold;&quot;&gt;Mode_Automatic_AZ&lt;/span&gt;&lt;span style=&quot;font-family: Consolas; font-size: 10pt; white-space: pre;&quot;&gt;(&lt;/span&gt;&lt;span style=&quot;font-family: Consolas; font-size: 10pt; white-space: pre; font-weight: bold;&quot;&gt;void&lt;/span&gt;&lt;span style=&quot;font-family: Consolas; font-size: 10pt; white-space: pre;&quot;&gt;)&lt;/span&gt;&lt;span style=&quot;font-family: Consolas; font-size: 10pt; white-space: pre;&quot;&gt;;&lt;/span&gt;&lt;/font&gt;&lt;/div&gt;" style="rounded=0;whiteSpace=wrap;html=1;fontSize=14;fontStyle=0;fillColor=none;strokeColor=default;fontColor=#000000;labelBackgroundColor=none;" vertex="1" parent="1">
                    <mxGeometry x="1181.1" y="1889.75" width="314.96" height="188.98" as="geometry"/>
                </mxCell>
            </root>
        </mxGraphModel>
    </diagram>
</mxfile>